M48
; DRILL file {KiCad (6.0.4)} date Mon May 16 18:12:22 2022
; FORMAT={-:-/ absolute / inch / decimal}
; #@! TF.CreationDate,2022-05-16T18:12:22+10:00
; #@! TF.GenerationSoftware,Kicad,Pcbnew,(6.0.4)
; #@! TF.FileFunction,Plated,1,2,PTH
FMAT,2
INCH
; #@! TA.AperFunction,Plated,PTH,ViaDrill
T1C0.0157
; #@! TA.AperFunction,Plated,PTH,ComponentDrill
T2C0.0335
; #@! TA.AperFunction,Plated,PTH,ComponentDrill
T3C0.0409
; #@! TA.AperFunction,Plated,PTH,ComponentDrill
T4C0.0579
; #@! TA.AperFunction,Plated,PTH,ComponentDrill
T5C0.1181
%
G90
G05
T1
X2.345Y-2.365
X2.665Y-2.12
X2.705Y-2.65
X2.7756Y-2.3956
X3.27Y-2.685
X3.365Y-2.71
X4.1175Y-2.3125
X4.6775Y-2.7225
X5.515Y-2.3
X6.1369Y-2.4255
X6.3Y-4.81
X6.3651Y-3.6601
X6.875Y-2.12
X6.9706Y-2.3956
X7.069Y-2.371
X7.13Y-3.66
X7.135Y-4.88
X7.1495Y-5.6704
X7.17Y-2.34
X7.265Y-2.31
X7.295Y-4.41
X7.315Y-2.2623
X7.3614Y-5.6949
X7.415Y-2.855
X7.5935Y-1.8478
X7.66Y-1.76
X7.7087Y-2.7487
X8.045Y-4.415
X9.365Y-2.71
X9.65Y-2.265
X10.585Y-2.545
X11.7Y-2.08
T2
X6.38Y-2.5016
X6.4292Y-2.6
X6.4784Y-2.5016
X6.5276Y-2.6
X6.5769Y-2.5016
X6.6261Y-2.6
X6.6753Y-2.5016
X6.7245Y-2.6
X6.7737Y-2.5016
X6.8229Y-2.6
X6.8721Y-2.5016
X6.9213Y-2.6
X6.9706Y-2.5016
X7.0198Y-2.6
X7.069Y-2.5016
X7.1182Y-2.6
X7.1674Y-2.5016
X7.2166Y-2.6
X7.2658Y-2.5016
X7.315Y-2.6
X7.3643Y-2.5016
X7.4135Y-2.6
X7.4627Y-2.5016
X7.5119Y-2.6
X7.5611Y-2.5016
X7.6103Y-2.6
X7.6595Y-2.5016
X7.7087Y-2.6
X7.758Y-2.5016
X7.8072Y-2.6
X7.8564Y-2.5016
X7.9056Y-2.6
T3
X3.025Y-4.81
X3.125Y-4.81
X12.87Y-4.435
X12.97Y-4.435
T4
X2.08Y-4.51
X2.095Y-1.87
X2.175Y-3.01
X2.265Y-5.26
X2.33Y-4.41
X2.345Y-1.77
X2.36Y-3.76
X2.425Y-2.91
X2.47Y-6.005
X2.515Y-5.16
X2.61Y-3.66
X2.72Y-5.905
X2.925Y-4.51
X3.115Y-3.01
X3.175Y-4.41
X3.295Y-5.26
X3.365Y-2.91
X3.395Y-1.87
X3.41Y-6.005
X3.485Y-3.76
X3.545Y-5.16
X3.645Y-1.77
X3.66Y-5.905
X3.675Y-4.51
X3.735Y-3.66
X3.865Y-3.01
X3.925Y-4.41
X4.045Y-5.26
X4.115Y-2.91
X4.235Y-3.76
X4.295Y-5.16
X4.33Y-1.87
X4.425Y-4.51
X4.485Y-3.66
X4.58Y-1.77
X4.615Y-3.01
X4.675Y-4.41
X4.795Y-5.26
X4.865Y-2.91
X4.985Y-3.76
X5.045Y-5.16
X5.175Y-4.51
X5.235Y-3.66
X5.265Y-1.87
X5.365Y-3.01
X5.425Y-4.41
X5.515Y-1.77
X5.545Y-5.26
X5.615Y-2.91
X5.735Y-3.76
X5.795Y-5.16
X5.925Y-4.51
X5.985Y-3.66
X6.115Y-3.01
X6.175Y-4.41
X6.2Y-1.87
X6.295Y-5.26
X6.365Y-2.91
X6.45Y-1.77
X6.485Y-3.76
X6.545Y-5.16
X6.675Y-4.51
X6.735Y-3.66
X6.865Y-3.01
X6.925Y-4.41
X6.96Y-6.0
X7.045Y-5.26
X7.115Y-2.91
X7.135Y-1.87
X7.21Y-5.9
X7.235Y-3.76
X7.295Y-5.16
X7.385Y-1.77
X7.425Y-4.51
X7.485Y-3.66
X7.615Y-3.01
X7.675Y-4.41
X7.795Y-5.26
X7.865Y-2.91
X7.985Y-3.76
X8.045Y-5.16
X8.175Y-4.51
X8.235Y-3.66
X8.365Y-3.01
X8.425Y-4.41
X8.465Y-1.87
X8.545Y-5.26
X8.615Y-2.91
X8.715Y-1.77
X8.735Y-3.76
X8.795Y-5.16
X8.925Y-4.51
X8.985Y-3.66
X9.115Y-3.01
X9.175Y-4.41
X9.2937Y-5.2604
X9.365Y-2.91
X9.4Y-1.87
X9.485Y-3.76
X9.5437Y-5.1604
X9.65Y-1.77
X9.675Y-4.51
X9.735Y-3.66
X9.865Y-3.01
X9.925Y-4.41
X10.045Y-5.26
X10.115Y-2.91
X10.235Y-3.76
X10.295Y-5.16
X10.335Y-1.87
X10.425Y-4.51
X10.485Y-3.66
X10.505Y-6.005
X10.585Y-1.77
X10.615Y-3.01
X10.675Y-4.41
X10.755Y-5.905
X10.795Y-5.26
X10.865Y-2.91
X10.985Y-3.76
X11.045Y-5.16
X11.1757Y-4.5099
X11.235Y-3.66
X11.275Y-1.87
X11.35Y-6.005
X11.37Y-3.01
X11.4257Y-4.4099
X11.525Y-1.77
X11.6Y-5.905
X11.62Y-2.91
X11.735Y-3.76
X11.825Y-5.26
X11.925Y-4.51
X11.985Y-3.66
X12.075Y-5.16
X12.115Y-6.005
X12.12Y-3.01
X12.175Y-4.41
X12.215Y-1.87
X12.365Y-5.905
X12.37Y-2.91
X12.465Y-1.77
X12.77Y-4.135
X12.865Y-5.26
X12.865Y-6.005
X12.875Y-3.01
X13.02Y-4.035
X13.115Y-5.16
X13.115Y-5.905
X13.125Y-2.91
X13.53Y-1.87
X13.615Y-6.005
X13.63Y-3.01
X13.78Y-1.77
X13.865Y-5.905
X13.88Y-2.91
T5
X4.11Y-5.83
X4.26Y-6.38
X4.41Y-5.83
X9.81Y-5.83
X9.96Y-6.38
X10.11Y-5.83
T0
M30
