G04 #@! TF.GenerationSoftware,KiCad,Pcbnew,(6.0.4)*
G04 #@! TF.CreationDate,2022-05-16T18:11:45+10:00*
G04 #@! TF.ProjectId,A600KB,41363030-4b42-42e6-9b69-6361645f7063,rev?*
G04 #@! TF.SameCoordinates,Original*
G04 #@! TF.FileFunction,Copper,L1,Top*
G04 #@! TF.FilePolarity,Positive*
%FSLAX46Y46*%
G04 Gerber Fmt 4.6, Leading zero omitted, Abs format (unit mm)*
G04 Created by KiCad (PCBNEW (6.0.4)) date 2022-05-16 18:11:45*
%MOMM*%
%LPD*%
G01*
G04 APERTURE LIST*
G04 #@! TA.AperFunction,Profile*
%ADD10C,0.100000*%
G04 #@! TD*
%ADD11C,0.300000*%
G04 #@! TA.AperFunction,NonConductor*
%ADD12C,0.300000*%
G04 #@! TD*
G04 #@! TA.AperFunction,ComponentPad*
%ADD13C,2.250000*%
G04 #@! TD*
G04 #@! TA.AperFunction,ComponentPad*
%ADD14C,1.905000*%
G04 #@! TD*
G04 #@! TA.AperFunction,ComponentPad*
%ADD15R,1.905000X1.905000*%
G04 #@! TD*
G04 #@! TA.AperFunction,ComponentPad*
%ADD16C,3.000000*%
G04 #@! TD*
G04 #@! TA.AperFunction,ComponentPad*
%ADD17C,1.600000*%
G04 #@! TD*
G04 #@! TA.AperFunction,ViaPad*
%ADD18C,0.800000*%
G04 #@! TD*
G04 #@! TA.AperFunction,Conductor*
%ADD19C,0.250000*%
G04 #@! TD*
G04 APERTURE END LIST*
D10*
X364000000Y-40000000D02*
X364000000Y-92500000D01*
X364000000Y-140500000D02*
X364000000Y-164500000D01*
X344000000Y-140500000D02*
X344000000Y-92500000D01*
X364000000Y-140500000D02*
X344000000Y-140500000D01*
X344000000Y-92500000D02*
X364000000Y-92500000D01*
X40000000Y-40000000D02*
X40000000Y-164500000D01*
X40000000Y-164500000D02*
X364000000Y-164500000D01*
X40000000Y-40000000D02*
X364000000Y-40000000D01*
D11*
D12*
X295370285Y-64512000D02*
X296084571Y-64512000D01*
X295227428Y-64940571D02*
X295727428Y-63440571D01*
X296227428Y-64940571D01*
X297370285Y-63440571D02*
X297084571Y-63440571D01*
X296941714Y-63512000D01*
X296870285Y-63583428D01*
X296727428Y-63797714D01*
X296656000Y-64083428D01*
X296656000Y-64654857D01*
X296727428Y-64797714D01*
X296798857Y-64869142D01*
X296941714Y-64940571D01*
X297227428Y-64940571D01*
X297370285Y-64869142D01*
X297441714Y-64797714D01*
X297513142Y-64654857D01*
X297513142Y-64297714D01*
X297441714Y-64154857D01*
X297370285Y-64083428D01*
X297227428Y-64012000D01*
X296941714Y-64012000D01*
X296798857Y-64083428D01*
X296727428Y-64154857D01*
X296656000Y-64297714D01*
X298441714Y-63440571D02*
X298584571Y-63440571D01*
X298727428Y-63512000D01*
X298798857Y-63583428D01*
X298870285Y-63726285D01*
X298941714Y-64012000D01*
X298941714Y-64369142D01*
X298870285Y-64654857D01*
X298798857Y-64797714D01*
X298727428Y-64869142D01*
X298584571Y-64940571D01*
X298441714Y-64940571D01*
X298298857Y-64869142D01*
X298227428Y-64797714D01*
X298156000Y-64654857D01*
X298084571Y-64369142D01*
X298084571Y-64012000D01*
X298156000Y-63726285D01*
X298227428Y-63583428D01*
X298298857Y-63512000D01*
X298441714Y-63440571D01*
X299870285Y-63440571D02*
X300013142Y-63440571D01*
X300156000Y-63512000D01*
X300227428Y-63583428D01*
X300298857Y-63726285D01*
X300370285Y-64012000D01*
X300370285Y-64369142D01*
X300298857Y-64654857D01*
X300227428Y-64797714D01*
X300156000Y-64869142D01*
X300013142Y-64940571D01*
X299870285Y-64940571D01*
X299727428Y-64869142D01*
X299656000Y-64797714D01*
X299584571Y-64654857D01*
X299513142Y-64369142D01*
X299513142Y-64012000D01*
X299584571Y-63726285D01*
X299656000Y-63583428D01*
X299727428Y-63512000D01*
X299870285Y-63440571D01*
X302156000Y-64940571D02*
X302156000Y-63440571D01*
X303013142Y-64940571D02*
X302370285Y-64083428D01*
X303013142Y-63440571D02*
X302156000Y-64297714D01*
X304156000Y-64154857D02*
X304370285Y-64226285D01*
X304441714Y-64297714D01*
X304513142Y-64440571D01*
X304513142Y-64654857D01*
X304441714Y-64797714D01*
X304370285Y-64869142D01*
X304227428Y-64940571D01*
X303656000Y-64940571D01*
X303656000Y-63440571D01*
X304156000Y-63440571D01*
X304298857Y-63512000D01*
X304370285Y-63583428D01*
X304441714Y-63726285D01*
X304441714Y-63869142D01*
X304370285Y-64012000D01*
X304298857Y-64083428D01*
X304156000Y-64154857D01*
X303656000Y-64154857D01*
X306298857Y-64940571D02*
X306298857Y-63940571D01*
X306298857Y-64226285D02*
X306370285Y-64083428D01*
X306441714Y-64012000D01*
X306584571Y-63940571D01*
X306727428Y-63940571D01*
X307156000Y-63583428D02*
X307227428Y-63512000D01*
X307370285Y-63440571D01*
X307727428Y-63440571D01*
X307870285Y-63512000D01*
X307941714Y-63583428D01*
X308013142Y-63726285D01*
X308013142Y-63869142D01*
X307941714Y-64083428D01*
X307084571Y-64940571D01*
X308013142Y-64940571D01*
X309798857Y-64369142D02*
X310941714Y-64369142D01*
X313441714Y-64940571D02*
X313441714Y-64154857D01*
X313370285Y-64012000D01*
X313227428Y-63940571D01*
X312941714Y-63940571D01*
X312798857Y-64012000D01*
X313441714Y-64869142D02*
X313298857Y-64940571D01*
X312941714Y-64940571D01*
X312798857Y-64869142D01*
X312727428Y-64726285D01*
X312727428Y-64583428D01*
X312798857Y-64440571D01*
X312941714Y-64369142D01*
X313298857Y-64369142D01*
X313441714Y-64297714D01*
X314727428Y-64869142D02*
X314584571Y-64940571D01*
X314298857Y-64940571D01*
X314156000Y-64869142D01*
X314084571Y-64726285D01*
X314084571Y-64154857D01*
X314156000Y-64012000D01*
X314298857Y-63940571D01*
X314584571Y-63940571D01*
X314727428Y-64012000D01*
X314798857Y-64154857D01*
X314798857Y-64297714D01*
X314084571Y-64440571D01*
X315441714Y-64940571D02*
X315441714Y-63440571D01*
X315441714Y-64012000D02*
X315584571Y-63940571D01*
X315870285Y-63940571D01*
X316013142Y-64012000D01*
X316084571Y-64083428D01*
X316156000Y-64226285D01*
X316156000Y-64654857D01*
X316084571Y-64797714D01*
X316013142Y-64869142D01*
X315870285Y-64940571D01*
X315584571Y-64940571D01*
X315441714Y-64869142D01*
X317370285Y-64869142D02*
X317227428Y-64940571D01*
X316941714Y-64940571D01*
X316798857Y-64869142D01*
X316727428Y-64726285D01*
X316727428Y-64154857D01*
X316798857Y-64012000D01*
X316941714Y-63940571D01*
X317227428Y-63940571D01*
X317370285Y-64012000D01*
X317441714Y-64154857D01*
X317441714Y-64297714D01*
X316727428Y-64440571D01*
X318084571Y-64940571D02*
X318084571Y-63940571D01*
X318084571Y-64226285D02*
X318156000Y-64083428D01*
X318227428Y-64012000D01*
X318370285Y-63940571D01*
X318513142Y-63940571D01*
X319013142Y-64940571D02*
X319013142Y-63440571D01*
X319013142Y-64012000D02*
X319156000Y-63940571D01*
X319441714Y-63940571D01*
X319584571Y-64012000D01*
X319656000Y-64083428D01*
X319727428Y-64226285D01*
X319727428Y-64654857D01*
X319656000Y-64797714D01*
X319584571Y-64869142D01*
X319441714Y-64940571D01*
X319156000Y-64940571D01*
X319013142Y-64869142D01*
X321013142Y-64940571D02*
X321013142Y-64154857D01*
X320941714Y-64012000D01*
X320798857Y-63940571D01*
X320513142Y-63940571D01*
X320370285Y-64012000D01*
X321013142Y-64869142D02*
X320870285Y-64940571D01*
X320513142Y-64940571D01*
X320370285Y-64869142D01*
X320298857Y-64726285D01*
X320298857Y-64583428D01*
X320370285Y-64440571D01*
X320513142Y-64369142D01*
X320870285Y-64369142D01*
X321013142Y-64297714D01*
X322370285Y-64869142D02*
X322227428Y-64940571D01*
X321941714Y-64940571D01*
X321798857Y-64869142D01*
X321727428Y-64797714D01*
X321656000Y-64654857D01*
X321656000Y-64226285D01*
X321727428Y-64083428D01*
X321798857Y-64012000D01*
X321941714Y-63940571D01*
X322227428Y-63940571D01*
X322370285Y-64012000D01*
X323013142Y-64940571D02*
X323013142Y-63440571D01*
X323656000Y-64940571D02*
X323656000Y-64154857D01*
X323584571Y-64012000D01*
X323441714Y-63940571D01*
X323227428Y-63940571D01*
X323084571Y-64012000D01*
X323013142Y-64083428D01*
X325513142Y-64369142D02*
X326656000Y-64369142D01*
X329156000Y-63940571D02*
X329156000Y-65154857D01*
X329084571Y-65297714D01*
X329013142Y-65369142D01*
X328870285Y-65440571D01*
X328656000Y-65440571D01*
X328513142Y-65369142D01*
X329156000Y-64869142D02*
X329013142Y-64940571D01*
X328727428Y-64940571D01*
X328584571Y-64869142D01*
X328513142Y-64797714D01*
X328441714Y-64654857D01*
X328441714Y-64226285D01*
X328513142Y-64083428D01*
X328584571Y-64012000D01*
X328727428Y-63940571D01*
X329013142Y-63940571D01*
X329156000Y-64012000D01*
X329870285Y-64940571D02*
X329870285Y-63940571D01*
X329870285Y-64226285D02*
X329941714Y-64083428D01*
X330013142Y-64012000D01*
X330156000Y-63940571D01*
X330298857Y-63940571D01*
X331441714Y-64940571D02*
X331441714Y-64154857D01*
X331370285Y-64012000D01*
X331227428Y-63940571D01*
X330941714Y-63940571D01*
X330798857Y-64012000D01*
X331441714Y-64869142D02*
X331298857Y-64940571D01*
X330941714Y-64940571D01*
X330798857Y-64869142D01*
X330727428Y-64726285D01*
X330727428Y-64583428D01*
X330798857Y-64440571D01*
X330941714Y-64369142D01*
X331298857Y-64369142D01*
X331441714Y-64297714D01*
X332013142Y-63940571D02*
X332370285Y-64940571D01*
X332727428Y-63940571D02*
X332370285Y-64940571D01*
X332227428Y-65297714D01*
X332156000Y-65369142D01*
X332013142Y-65440571D01*
X333941714Y-63940571D02*
X333941714Y-64940571D01*
X333298857Y-63940571D02*
X333298857Y-64726285D01*
X333370285Y-64869142D01*
X333513142Y-64940571D01*
X333727428Y-64940571D01*
X333870285Y-64869142D01*
X333941714Y-64797714D01*
X334656000Y-63940571D02*
X334656000Y-64940571D01*
X334656000Y-64083428D02*
X334727428Y-64012000D01*
X334870285Y-63940571D01*
X335084571Y-63940571D01*
X335227428Y-64012000D01*
X335298857Y-64154857D01*
X335298857Y-64940571D01*
X336013142Y-64940571D02*
X336013142Y-63940571D01*
X336013142Y-63440571D02*
X335941714Y-63512000D01*
X336013142Y-63583428D01*
X336084571Y-63512000D01*
X336013142Y-63440571D01*
X336013142Y-63583428D01*
X337370285Y-64869142D02*
X337227428Y-64940571D01*
X336941714Y-64940571D01*
X336798857Y-64869142D01*
X336727428Y-64797714D01*
X336656000Y-64654857D01*
X336656000Y-64226285D01*
X336727428Y-64083428D01*
X336798857Y-64012000D01*
X336941714Y-63940571D01*
X337227428Y-63940571D01*
X337370285Y-64012000D01*
X338227428Y-64940571D02*
X338084571Y-64869142D01*
X338013142Y-64797714D01*
X337941714Y-64654857D01*
X337941714Y-64226285D01*
X338013142Y-64083428D01*
X338084571Y-64012000D01*
X338227428Y-63940571D01*
X338441714Y-63940571D01*
X338584571Y-64012000D01*
X338656000Y-64083428D01*
X338727428Y-64226285D01*
X338727428Y-64654857D01*
X338656000Y-64797714D01*
X338584571Y-64869142D01*
X338441714Y-64940571D01*
X338227428Y-64940571D01*
X339370285Y-64940571D02*
X339370285Y-63940571D01*
X339370285Y-64226285D02*
X339441714Y-64083428D01*
X339513142Y-64012000D01*
X339656000Y-63940571D01*
X339798857Y-63940571D01*
X340298857Y-63940571D02*
X340298857Y-64940571D01*
X340298857Y-64083428D02*
X340370285Y-64012000D01*
X340513142Y-63940571D01*
X340727428Y-63940571D01*
X340870285Y-64012000D01*
X340941714Y-64154857D01*
X340941714Y-64940571D01*
X341656000Y-64797714D02*
X341727428Y-64869142D01*
X341656000Y-64940571D01*
X341584571Y-64869142D01*
X341656000Y-64797714D01*
X341656000Y-64940571D01*
X343013142Y-64869142D02*
X342870285Y-64940571D01*
X342584571Y-64940571D01*
X342441714Y-64869142D01*
X342370285Y-64797714D01*
X342298857Y-64654857D01*
X342298857Y-64226285D01*
X342370285Y-64083428D01*
X342441714Y-64012000D01*
X342584571Y-63940571D01*
X342870285Y-63940571D01*
X343013142Y-64012000D01*
X343870285Y-64940571D02*
X343727428Y-64869142D01*
X343656000Y-64797714D01*
X343584571Y-64654857D01*
X343584571Y-64226285D01*
X343656000Y-64083428D01*
X343727428Y-64012000D01*
X343870285Y-63940571D01*
X344084571Y-63940571D01*
X344227428Y-64012000D01*
X344298857Y-64083428D01*
X344370285Y-64226285D01*
X344370285Y-64654857D01*
X344298857Y-64797714D01*
X344227428Y-64869142D01*
X344084571Y-64940571D01*
X343870285Y-64940571D01*
X345013142Y-64940571D02*
X345013142Y-63940571D01*
X345013142Y-64083428D02*
X345084571Y-64012000D01*
X345227428Y-63940571D01*
X345441714Y-63940571D01*
X345584571Y-64012000D01*
X345656000Y-64154857D01*
X345656000Y-64940571D01*
X345656000Y-64154857D02*
X345727428Y-64012000D01*
X345870285Y-63940571D01*
X346084571Y-63940571D01*
X346227428Y-64012000D01*
X346298857Y-64154857D01*
X346298857Y-64940571D01*
X348156000Y-64369142D02*
X349298857Y-64369142D01*
X351156000Y-64940571D02*
X351156000Y-63440571D01*
X351656000Y-64512000D01*
X352156000Y-63440571D01*
X352156000Y-64940571D01*
X353513142Y-64940571D02*
X353513142Y-64154857D01*
X353441714Y-64012000D01*
X353298857Y-63940571D01*
X353013142Y-63940571D01*
X352870285Y-64012000D01*
X353513142Y-64869142D02*
X353370285Y-64940571D01*
X353013142Y-64940571D01*
X352870285Y-64869142D01*
X352798857Y-64726285D01*
X352798857Y-64583428D01*
X352870285Y-64440571D01*
X353013142Y-64369142D01*
X353370285Y-64369142D01*
X353513142Y-64297714D01*
X354084571Y-63940571D02*
X354441714Y-64940571D01*
X354798857Y-63940571D02*
X354441714Y-64940571D01*
X354298857Y-65297714D01*
X354227428Y-65369142D01*
X354084571Y-65440571D01*
X356441714Y-63512000D02*
X356441714Y-63440571D01*
X356513142Y-63297714D01*
X356584571Y-63226285D01*
X357156000Y-63583428D02*
X357227428Y-63512000D01*
X357370285Y-63440571D01*
X357727428Y-63440571D01*
X357870285Y-63512000D01*
X357941714Y-63583428D01*
X358013142Y-63726285D01*
X358013142Y-63869142D01*
X357941714Y-64083428D01*
X357084571Y-64940571D01*
X358013142Y-64940571D01*
X358584571Y-63583428D02*
X358656000Y-63512000D01*
X358798857Y-63440571D01*
X359156000Y-63440571D01*
X359298857Y-63512000D01*
X359370285Y-63583428D01*
X359441714Y-63726285D01*
X359441714Y-63869142D01*
X359370285Y-64083428D01*
X358513142Y-64940571D01*
X359441714Y-64940571D01*
D13*
X164719000Y-95504000D03*
X171069000Y-92964000D03*
X131445000Y-114554000D03*
X137795000Y-112014000D03*
X126619000Y-95504000D03*
X132969000Y-92964000D03*
X288798000Y-76454000D03*
X295148000Y-73914000D03*
X300355000Y-133604000D03*
X306705000Y-131064000D03*
X326771000Y-133604000D03*
X333121000Y-131064000D03*
X53213000Y-47498000D03*
X59563000Y-44958000D03*
X86233000Y-47498000D03*
X92583000Y-44958000D03*
X109982000Y-47498000D03*
X116332000Y-44958000D03*
X133731000Y-47498000D03*
X140081000Y-44958000D03*
X157480000Y-47498000D03*
X163830000Y-44958000D03*
X181229000Y-47498000D03*
X187579000Y-44958000D03*
X215011000Y-47498000D03*
X221361000Y-44958000D03*
X238760000Y-47498000D03*
X245110000Y-44958000D03*
X262509000Y-47498000D03*
X268859000Y-44958000D03*
X286385000Y-47498000D03*
X292735000Y-44958000D03*
X310261000Y-47498000D03*
X316611000Y-44958000D03*
X55245000Y-76454000D03*
X61595000Y-73914000D03*
X79121000Y-76454000D03*
X85471000Y-73914000D03*
X98171000Y-76454000D03*
X104521000Y-73914000D03*
X117221000Y-76454000D03*
X123571000Y-73914000D03*
X136271000Y-76454000D03*
X142621000Y-73914000D03*
X155321000Y-76454000D03*
X161671000Y-73914000D03*
X174371000Y-76454000D03*
X180721000Y-73914000D03*
X193421000Y-76454000D03*
X199771000Y-73914000D03*
X212471000Y-76454000D03*
X218821000Y-73914000D03*
X231521000Y-76454000D03*
X237871000Y-73914000D03*
X250571000Y-76454000D03*
X256921000Y-73914000D03*
X269621000Y-76454000D03*
X275971000Y-73914000D03*
X307848000Y-76454000D03*
X314198000Y-73914000D03*
X327025000Y-76454000D03*
X333375000Y-73914000D03*
X346202000Y-76454000D03*
X352552000Y-73914000D03*
X343662000Y-47498000D03*
X350012000Y-44958000D03*
X59944000Y-95504000D03*
X66294000Y-92964000D03*
X88519000Y-95504000D03*
X94869000Y-92964000D03*
X107569000Y-95504000D03*
X113919000Y-92964000D03*
X145669000Y-95504000D03*
X152019000Y-92964000D03*
X183769000Y-95504000D03*
X190119000Y-92964000D03*
X202819000Y-95504000D03*
X209169000Y-92964000D03*
X221869000Y-95504000D03*
X228219000Y-92964000D03*
X240919000Y-95504000D03*
X247269000Y-92964000D03*
X259969000Y-95504000D03*
X266319000Y-92964000D03*
X279019000Y-95504000D03*
X285369000Y-92964000D03*
X298069000Y-95504000D03*
X304419000Y-92964000D03*
X324358000Y-105029000D03*
X330708000Y-102489000D03*
D14*
X326898000Y-112649000D03*
D15*
X329438000Y-112649000D03*
D13*
X52832000Y-114554000D03*
X59182000Y-112014000D03*
X74295000Y-114554000D03*
X80645000Y-112014000D03*
D14*
X76835000Y-122174000D03*
D15*
X79375000Y-122174000D03*
D13*
X93345000Y-114554000D03*
X99695000Y-112014000D03*
X112395000Y-114554000D03*
X118745000Y-112014000D03*
X150495000Y-114554000D03*
X156845000Y-112014000D03*
X169545000Y-114554000D03*
X175895000Y-112014000D03*
X188595000Y-114554000D03*
X194945000Y-112014000D03*
X207645000Y-114554000D03*
X213995000Y-112014000D03*
X226695000Y-114554000D03*
X233045000Y-112014000D03*
X245745000Y-114554000D03*
X252095000Y-112014000D03*
X264795000Y-114554000D03*
X271145000Y-112014000D03*
X283863489Y-114551342D03*
X290213489Y-112011342D03*
X302895000Y-114554000D03*
X309245000Y-112014000D03*
X57531000Y-133604000D03*
X63881000Y-131064000D03*
X83693000Y-133604000D03*
X90043000Y-131064000D03*
X102743000Y-133604000D03*
X109093000Y-131064000D03*
X121793000Y-133604000D03*
X128143000Y-131064000D03*
X140843000Y-133604000D03*
X147193000Y-131064000D03*
X159893000Y-133604000D03*
X166243000Y-131064000D03*
X178943000Y-133604000D03*
X185293000Y-131064000D03*
X197993000Y-133604000D03*
X204343000Y-131064000D03*
X217043000Y-133604000D03*
X223393000Y-131064000D03*
X236058793Y-133613187D03*
X242408793Y-131073187D03*
X255143000Y-133604000D03*
X261493000Y-131064000D03*
X274193000Y-133604000D03*
X280543000Y-131064000D03*
X307721000Y-152527000D03*
X314071000Y-149987000D03*
X326771000Y-152527000D03*
X333121000Y-149987000D03*
X345821000Y-152527000D03*
X352171000Y-149987000D03*
X62738000Y-152527000D03*
X69088000Y-149987000D03*
X86614000Y-152527000D03*
X92964000Y-149987000D03*
X176784000Y-152400000D03*
X183134000Y-149860000D03*
X266827000Y-152527000D03*
X273177000Y-149987000D03*
X288290000Y-152527000D03*
X294640000Y-149987000D03*
D16*
X108204000Y-162052000D03*
X104394000Y-148082000D03*
X112014000Y-148082000D03*
X252984000Y-162052000D03*
X249174000Y-148082000D03*
X256794000Y-148082000D03*
D17*
X162052000Y-63540000D03*
X163302000Y-66040000D03*
X164552000Y-63540000D03*
X165802000Y-66040000D03*
X167052000Y-63540000D03*
X168302000Y-66040000D03*
X169552000Y-63540000D03*
X170802000Y-66040000D03*
X172052000Y-63540000D03*
X173302000Y-66040000D03*
X174552000Y-63540000D03*
X175802000Y-66040000D03*
X177052000Y-63540000D03*
X178302000Y-66040000D03*
X179552000Y-63540000D03*
X180802000Y-66040000D03*
X182052000Y-63540000D03*
X183302000Y-66040000D03*
X184552000Y-63540000D03*
X185802000Y-66040000D03*
X187052000Y-63540000D03*
X188302000Y-66040000D03*
X189552000Y-63540000D03*
X190802000Y-66040000D03*
X192052000Y-63540000D03*
X193302000Y-66040000D03*
X194552000Y-63540000D03*
X195802000Y-66040000D03*
X197052000Y-63540000D03*
X198302000Y-66040000D03*
X199552000Y-63540000D03*
X200802000Y-66040000D03*
D18*
X155878344Y-61606555D03*
X161673786Y-92966671D03*
X186978321Y-144649996D03*
X192875183Y-46935106D03*
X185802000Y-57462800D03*
X181596710Y-144027417D03*
X160020000Y-122174000D03*
X297180000Y-52832000D03*
X181229000Y-123952000D03*
X174625000Y-53848000D03*
X67691000Y-53848000D03*
X68707000Y-67310000D03*
X177052000Y-60847000D03*
X70499000Y-60847000D03*
X83058000Y-68199000D03*
X179552000Y-60224000D03*
X59563000Y-60071000D03*
X85471000Y-68834000D03*
X182118000Y-59436000D03*
X104584500Y-58737500D03*
X118808500Y-69151500D03*
X184531000Y-58674000D03*
X140081000Y-58420000D03*
X181102000Y-92964000D03*
X185293000Y-112014000D03*
X204343000Y-112141000D03*
X188341000Y-72517000D03*
X237871000Y-68834000D03*
X245110000Y-57531000D03*
X268859000Y-64643000D03*
X194564000Y-44704000D03*
X195802000Y-69818000D03*
D19*
X164876394Y-61606555D02*
X165802000Y-62532161D01*
X165802000Y-62532161D02*
X165802000Y-66040000D01*
X155878344Y-61606555D02*
X164876394Y-61606555D01*
X160020000Y-122174000D02*
X79375000Y-122174000D01*
X155321000Y-76454000D02*
X174371000Y-76454000D01*
X161676457Y-92964000D02*
X161673786Y-92966671D01*
X171069000Y-92964000D02*
X161676457Y-92964000D01*
X189738000Y-73914000D02*
X199771000Y-73914000D01*
X188341000Y-72517000D02*
X189738000Y-73914000D01*
X288798000Y-76454000D02*
X307848000Y-76454000D01*
X269621000Y-76454000D02*
X288798000Y-76454000D01*
X250571000Y-76454000D02*
X269621000Y-76454000D01*
X231521000Y-76454000D02*
X250571000Y-76454000D01*
X212471000Y-76454000D02*
X231521000Y-76454000D01*
X193421000Y-76454000D02*
X212471000Y-76454000D01*
X174371000Y-76454000D02*
X193421000Y-76454000D01*
X136271000Y-76454000D02*
X155321000Y-76454000D01*
X117221000Y-76454000D02*
X136271000Y-76454000D01*
X98171000Y-76454000D02*
X117221000Y-76454000D01*
X79121000Y-76454000D02*
X98171000Y-76454000D01*
X55245000Y-76454000D02*
X79121000Y-76454000D01*
X352552000Y-73914000D02*
X333375000Y-73914000D01*
X186981325Y-144653000D02*
X186978321Y-144649996D01*
X267843000Y-144653000D02*
X186981325Y-144653000D01*
X273177000Y-149987000D02*
X267843000Y-144653000D01*
X102743000Y-133604000D02*
X83693000Y-133604000D01*
X121793000Y-133604000D02*
X102743000Y-133604000D01*
X140843000Y-133604000D02*
X121793000Y-133604000D01*
X159893000Y-133604000D02*
X140843000Y-133604000D01*
X178943000Y-133604000D02*
X159893000Y-133604000D01*
X197993000Y-133604000D02*
X178943000Y-133604000D01*
X217043000Y-133604000D02*
X197993000Y-133604000D01*
X217052187Y-133613187D02*
X217043000Y-133604000D01*
X236058793Y-133613187D02*
X217052187Y-133613187D01*
X255143000Y-133604000D02*
X236067980Y-133604000D01*
X236067980Y-133604000D02*
X236058793Y-133613187D01*
X274193000Y-133604000D02*
X255143000Y-133604000D01*
X150495000Y-114554000D02*
X131445000Y-114554000D01*
X169545000Y-114554000D02*
X150495000Y-114554000D01*
X188595000Y-114554000D02*
X169545000Y-114554000D01*
X207645000Y-114554000D02*
X188595000Y-114554000D01*
X226695000Y-114554000D02*
X207645000Y-114554000D01*
X245745000Y-114554000D02*
X226695000Y-114554000D01*
X264795000Y-114554000D02*
X245745000Y-114554000D01*
X264797658Y-114551342D02*
X264795000Y-114554000D01*
X283863489Y-114551342D02*
X264797658Y-114551342D01*
X283866147Y-114554000D02*
X283863489Y-114551342D01*
X302895000Y-114554000D02*
X283866147Y-114554000D01*
X112395000Y-114554000D02*
X131445000Y-114554000D01*
X93345000Y-114554000D02*
X112395000Y-114554000D01*
X74295000Y-114554000D02*
X93345000Y-114554000D01*
X67431275Y-112014000D02*
X80645000Y-112014000D01*
X65219234Y-114226041D02*
X67431275Y-112014000D01*
X56723869Y-114226041D02*
X65219234Y-114226041D01*
X55567695Y-113069867D02*
X56723869Y-114226041D01*
X55567695Y-94292305D02*
X55567695Y-113069867D01*
X56896000Y-92964000D02*
X55567695Y-94292305D01*
X66294000Y-92964000D02*
X56896000Y-92964000D01*
X202819000Y-95504000D02*
X183769000Y-95504000D01*
X221869000Y-95504000D02*
X202819000Y-95504000D01*
X240919000Y-95504000D02*
X221869000Y-95504000D01*
X259969000Y-95504000D02*
X240919000Y-95504000D01*
X279019000Y-95504000D02*
X259969000Y-95504000D01*
X298069000Y-95504000D02*
X279019000Y-95504000D01*
X126619000Y-95504000D02*
X145669000Y-95504000D01*
X164719000Y-95504000D02*
X145669000Y-95504000D01*
X195099562Y-46935106D02*
X197076668Y-44958000D01*
X192875183Y-46935106D02*
X195099562Y-46935106D01*
X197076668Y-44958000D02*
X221361000Y-44958000D01*
X310851047Y-70567047D02*
X314198000Y-73914000D01*
X196551047Y-70567047D02*
X310851047Y-70567047D01*
X195802000Y-69818000D02*
X196551047Y-70567047D01*
X333375000Y-73914000D02*
X314198000Y-73914000D01*
X350520000Y-45466000D02*
X350012000Y-44958000D01*
X350520000Y-53340000D02*
X350520000Y-45466000D01*
X345603999Y-58256001D02*
X350520000Y-53340000D01*
X213741000Y-58166000D02*
X213831001Y-58256001D01*
X202426000Y-58166000D02*
X213741000Y-58166000D01*
X213831001Y-58256001D02*
X345603999Y-58256001D01*
X197052000Y-63540000D02*
X202426000Y-58166000D01*
X169831998Y-61595000D02*
X168302000Y-63124998D01*
X168302000Y-63124998D02*
X168302000Y-66040000D01*
X193360590Y-61595000D02*
X169831998Y-61595000D01*
X202123590Y-52832000D02*
X193360590Y-61595000D01*
X297180000Y-52832000D02*
X202123590Y-52832000D01*
X164719000Y-95504000D02*
X183769000Y-95504000D01*
X171069000Y-92964000D02*
X181102000Y-92964000D01*
X169346929Y-44958000D02*
X163830000Y-44958000D01*
X177512418Y-53123489D02*
X169346929Y-44958000D01*
X181462689Y-53123489D02*
X177512418Y-53123489D01*
X185802000Y-57462800D02*
X181462689Y-53123489D01*
X107569000Y-95504000D02*
X126619000Y-95504000D01*
X88519000Y-95504000D02*
X107569000Y-95504000D01*
X59944000Y-95504000D02*
X88519000Y-95504000D01*
X184589126Y-144031558D02*
X181584191Y-144031558D01*
X266230827Y-150635019D02*
X191192587Y-150635019D01*
X191192587Y-150635019D02*
X184589126Y-144031558D01*
X269470730Y-150635019D02*
X266230827Y-150635019D01*
X269528028Y-150692317D02*
X269470730Y-150635019D01*
X270633933Y-151798222D02*
X269528028Y-150692317D01*
X274504603Y-151798222D02*
X270633933Y-151798222D01*
X276315825Y-149987000D02*
X274504603Y-151798222D01*
X288683998Y-149987000D02*
X276315825Y-149987000D01*
X341176687Y-115116687D02*
X337820000Y-111760000D01*
X341176687Y-139154600D02*
X341176687Y-115116687D01*
X344262087Y-142240000D02*
X341176687Y-139154600D01*
X350520000Y-142240000D02*
X344262087Y-142240000D01*
X355600000Y-147320000D02*
X350520000Y-142240000D01*
X355600000Y-149860000D02*
X355600000Y-147320000D01*
X352933000Y-152527000D02*
X355600000Y-149860000D01*
X345821000Y-152527000D02*
X352933000Y-152527000D01*
X337820000Y-111760000D02*
X332740000Y-116840000D01*
X340360000Y-109220000D02*
X337820000Y-111760000D01*
X304546000Y-114554000D02*
X302895000Y-114554000D01*
X304800000Y-114300000D02*
X304546000Y-114554000D01*
X314960000Y-114300000D02*
X304800000Y-114300000D01*
X317500000Y-116840000D02*
X314960000Y-114300000D01*
X340360000Y-91440000D02*
X340360000Y-109220000D01*
X346202000Y-85598000D02*
X340360000Y-91440000D01*
X332740000Y-116840000D02*
X317500000Y-116840000D01*
X346202000Y-76454000D02*
X346202000Y-85598000D01*
X352174526Y-146764159D02*
X352171000Y-146767685D01*
X352174526Y-146434526D02*
X352174526Y-146764159D01*
X340360000Y-139700000D02*
X345440000Y-144780000D01*
X340360000Y-132080000D02*
X340360000Y-139700000D01*
X339344000Y-131064000D02*
X340360000Y-132080000D01*
X345440000Y-144780000D02*
X350520000Y-144780000D01*
X350520000Y-144780000D02*
X352174526Y-146434526D01*
X333121000Y-131064000D02*
X339344000Y-131064000D01*
X352171000Y-146767685D02*
X352171000Y-149987000D01*
X298069000Y-95504000D02*
X314833000Y-95504000D01*
X314833000Y-95504000D02*
X324358000Y-105029000D01*
X293049010Y-149987000D02*
X294640000Y-149987000D01*
X288683998Y-149987000D02*
X293049010Y-149987000D01*
X168529000Y-123952000D02*
X168529000Y-123952000D01*
X168529000Y-123952000D02*
X181229000Y-123952000D01*
X76835000Y-123521038D02*
X77265962Y-123952000D01*
X76835000Y-122174000D02*
X76835000Y-123521038D01*
X77265962Y-123952000D02*
X168529000Y-123952000D01*
X67691000Y-53848000D02*
X67691000Y-53848000D01*
X174625000Y-53848000D02*
X174059315Y-53848000D01*
X174059315Y-53848000D02*
X67691000Y-53848000D01*
X68707000Y-67310000D02*
X68707000Y-67310000D01*
X175802000Y-66040000D02*
X174532000Y-67310000D01*
X174532000Y-67310000D02*
X68707000Y-67310000D01*
X70499000Y-60847000D02*
X70499000Y-60847000D01*
X177052000Y-60847000D02*
X70499000Y-60847000D01*
X83058000Y-68199000D02*
X83058000Y-68199000D01*
X176524000Y-67818000D02*
X83439000Y-67818000D01*
X178302000Y-66040000D02*
X176524000Y-67818000D01*
X83439000Y-67818000D02*
X83058000Y-68199000D01*
X59563000Y-60071000D02*
X59563000Y-60071000D01*
X179552000Y-60224000D02*
X177502002Y-60224000D01*
X177502002Y-60224000D02*
X177349002Y-60071000D01*
X177349002Y-60071000D02*
X59563000Y-60071000D01*
X85471000Y-68834000D02*
X85471000Y-68834000D01*
X178573991Y-68268009D02*
X176710400Y-68268010D01*
X180802000Y-66040000D02*
X178573991Y-68268009D01*
X86036990Y-68268010D02*
X85471000Y-68834000D01*
X176710400Y-68268010D02*
X86036990Y-68268010D01*
X104584500Y-58737500D02*
X104521000Y-58674000D01*
X182118000Y-59436000D02*
X105283000Y-59436000D01*
X105283000Y-59436000D02*
X104584500Y-58737500D01*
X118808500Y-69151500D02*
X119241980Y-68718020D01*
X180623980Y-68718020D02*
X182502001Y-66839999D01*
X183302000Y-66040000D02*
X180508000Y-68834000D01*
X182502001Y-66839999D02*
X183302000Y-66040000D01*
X119241980Y-68718020D02*
X180623980Y-68718020D01*
X140081000Y-58420000D02*
X140081000Y-58420000D01*
X184531000Y-58674000D02*
X140335000Y-58674000D01*
X140335000Y-58674000D02*
X140081000Y-58420000D01*
X175895000Y-112014000D02*
X185293000Y-112014000D01*
X204343000Y-112141000D02*
X195072000Y-112141000D01*
X195072000Y-112141000D02*
X194945000Y-112014000D01*
X188341000Y-72517000D02*
X188341000Y-72517000D01*
X237871000Y-68834000D02*
X237871000Y-68834000D01*
X190802000Y-66040000D02*
X193596000Y-68834000D01*
X193596000Y-68834000D02*
X237871000Y-68834000D01*
X245110000Y-57531000D02*
X245110000Y-57531000D01*
X198061000Y-57531000D02*
X245110000Y-57531000D01*
X192052000Y-63540000D02*
X198061000Y-57531000D01*
X194136998Y-66040000D02*
X195511997Y-64665001D01*
X195511997Y-64665001D02*
X268836999Y-64665001D01*
X193302000Y-66040000D02*
X194136998Y-66040000D01*
X194564000Y-44704000D02*
X194564000Y-44704000D01*
X196215000Y-43053000D02*
X194564000Y-44704000D01*
X292735000Y-44958000D02*
X290830000Y-43053000D01*
X290830000Y-43053000D02*
X196215000Y-43053000D01*
X195802000Y-69818000D02*
X195802000Y-69818000D01*
X314071000Y-149987000D02*
X333121000Y-149987000D01*
X352171000Y-149987000D02*
X333121000Y-149987000D01*
X58293000Y-135128000D02*
X58293000Y-148082000D01*
X53467000Y-129540000D02*
X57531000Y-133604000D01*
X52832000Y-114554000D02*
X52832000Y-115316000D01*
X295529000Y-152527000D02*
X288290000Y-152527000D01*
X288290000Y-152527000D02*
X266827000Y-152527000D01*
X57531000Y-134366000D02*
X58293000Y-135128000D01*
X300355000Y-147701000D02*
X295529000Y-152527000D01*
X57531000Y-133604000D02*
X57531000Y-134366000D01*
X300355000Y-133604000D02*
X300355000Y-147701000D01*
X52832000Y-115316000D02*
X53467000Y-115951000D01*
X58293000Y-148082000D02*
X62738000Y-152527000D01*
X53467000Y-115951000D02*
X53467000Y-129540000D01*
M02*
