G04 #@! TF.GenerationSoftware,KiCad,Pcbnew,(5.1.4-0-10_14)*
G04 #@! TF.CreationDate,2019-11-18T20:50:20+11:00*
G04 #@! TF.ProjectId,A600KB,41363030-4b42-42e6-9b69-6361645f7063,rev?*
G04 #@! TF.SameCoordinates,Original*
G04 #@! TF.FileFunction,Copper,L1,Top*
G04 #@! TF.FilePolarity,Positive*
%FSLAX46Y46*%
G04 Gerber Fmt 4.6, Leading zero omitted, Abs format (unit mm)*
G04 Created by KiCad (PCBNEW (5.1.4-0-10_14)) date 2019-11-18 20:50:20*
%MOMM*%
%LPD*%
G04 APERTURE LIST*
%ADD10C,0.300000*%
%ADD11C,0.100000*%
%ADD12C,3.000000*%
%ADD13C,2.250000*%
%ADD14C,1.600000*%
%ADD15C,1.905000*%
%ADD16R,1.905000X1.905000*%
%ADD17C,0.800000*%
%ADD18C,0.250000*%
G04 APERTURE END LIST*
D10*
X295441714Y-64512000D02*
X296156000Y-64512000D01*
X295298857Y-64940571D02*
X295798857Y-63440571D01*
X296298857Y-64940571D01*
X297441714Y-63440571D02*
X297156000Y-63440571D01*
X297013142Y-63512000D01*
X296941714Y-63583428D01*
X296798857Y-63797714D01*
X296727428Y-64083428D01*
X296727428Y-64654857D01*
X296798857Y-64797714D01*
X296870285Y-64869142D01*
X297013142Y-64940571D01*
X297298857Y-64940571D01*
X297441714Y-64869142D01*
X297513142Y-64797714D01*
X297584571Y-64654857D01*
X297584571Y-64297714D01*
X297513142Y-64154857D01*
X297441714Y-64083428D01*
X297298857Y-64012000D01*
X297013142Y-64012000D01*
X296870285Y-64083428D01*
X296798857Y-64154857D01*
X296727428Y-64297714D01*
X298513142Y-63440571D02*
X298656000Y-63440571D01*
X298798857Y-63512000D01*
X298870285Y-63583428D01*
X298941714Y-63726285D01*
X299013142Y-64012000D01*
X299013142Y-64369142D01*
X298941714Y-64654857D01*
X298870285Y-64797714D01*
X298798857Y-64869142D01*
X298656000Y-64940571D01*
X298513142Y-64940571D01*
X298370285Y-64869142D01*
X298298857Y-64797714D01*
X298227428Y-64654857D01*
X298156000Y-64369142D01*
X298156000Y-64012000D01*
X298227428Y-63726285D01*
X298298857Y-63583428D01*
X298370285Y-63512000D01*
X298513142Y-63440571D01*
X299941714Y-63440571D02*
X300084571Y-63440571D01*
X300227428Y-63512000D01*
X300298857Y-63583428D01*
X300370285Y-63726285D01*
X300441714Y-64012000D01*
X300441714Y-64369142D01*
X300370285Y-64654857D01*
X300298857Y-64797714D01*
X300227428Y-64869142D01*
X300084571Y-64940571D01*
X299941714Y-64940571D01*
X299798857Y-64869142D01*
X299727428Y-64797714D01*
X299656000Y-64654857D01*
X299584571Y-64369142D01*
X299584571Y-64012000D01*
X299656000Y-63726285D01*
X299727428Y-63583428D01*
X299798857Y-63512000D01*
X299941714Y-63440571D01*
X302227428Y-64940571D02*
X302227428Y-63440571D01*
X303084571Y-64940571D02*
X302441714Y-64083428D01*
X303084571Y-63440571D02*
X302227428Y-64297714D01*
X304227428Y-64154857D02*
X304441714Y-64226285D01*
X304513142Y-64297714D01*
X304584571Y-64440571D01*
X304584571Y-64654857D01*
X304513142Y-64797714D01*
X304441714Y-64869142D01*
X304298857Y-64940571D01*
X303727428Y-64940571D01*
X303727428Y-63440571D01*
X304227428Y-63440571D01*
X304370285Y-63512000D01*
X304441714Y-63583428D01*
X304513142Y-63726285D01*
X304513142Y-63869142D01*
X304441714Y-64012000D01*
X304370285Y-64083428D01*
X304227428Y-64154857D01*
X303727428Y-64154857D01*
X306370285Y-64940571D02*
X306370285Y-63940571D01*
X306370285Y-64226285D02*
X306441714Y-64083428D01*
X306513142Y-64012000D01*
X306656000Y-63940571D01*
X306798857Y-63940571D01*
X308084571Y-64940571D02*
X307227428Y-64940571D01*
X307656000Y-64940571D02*
X307656000Y-63440571D01*
X307513142Y-63654857D01*
X307370285Y-63797714D01*
X307227428Y-63869142D01*
X309870285Y-64369142D02*
X311013142Y-64369142D01*
X313513142Y-64940571D02*
X313513142Y-64154857D01*
X313441714Y-64012000D01*
X313298857Y-63940571D01*
X313013142Y-63940571D01*
X312870285Y-64012000D01*
X313513142Y-64869142D02*
X313370285Y-64940571D01*
X313013142Y-64940571D01*
X312870285Y-64869142D01*
X312798857Y-64726285D01*
X312798857Y-64583428D01*
X312870285Y-64440571D01*
X313013142Y-64369142D01*
X313370285Y-64369142D01*
X313513142Y-64297714D01*
X314798857Y-64869142D02*
X314656000Y-64940571D01*
X314370285Y-64940571D01*
X314227428Y-64869142D01*
X314156000Y-64726285D01*
X314156000Y-64154857D01*
X314227428Y-64012000D01*
X314370285Y-63940571D01*
X314656000Y-63940571D01*
X314798857Y-64012000D01*
X314870285Y-64154857D01*
X314870285Y-64297714D01*
X314156000Y-64440571D01*
X315513142Y-64940571D02*
X315513142Y-63440571D01*
X315513142Y-64012000D02*
X315656000Y-63940571D01*
X315941714Y-63940571D01*
X316084571Y-64012000D01*
X316156000Y-64083428D01*
X316227428Y-64226285D01*
X316227428Y-64654857D01*
X316156000Y-64797714D01*
X316084571Y-64869142D01*
X315941714Y-64940571D01*
X315656000Y-64940571D01*
X315513142Y-64869142D01*
X317441714Y-64869142D02*
X317298857Y-64940571D01*
X317013142Y-64940571D01*
X316870285Y-64869142D01*
X316798857Y-64726285D01*
X316798857Y-64154857D01*
X316870285Y-64012000D01*
X317013142Y-63940571D01*
X317298857Y-63940571D01*
X317441714Y-64012000D01*
X317513142Y-64154857D01*
X317513142Y-64297714D01*
X316798857Y-64440571D01*
X318156000Y-64940571D02*
X318156000Y-63940571D01*
X318156000Y-64226285D02*
X318227428Y-64083428D01*
X318298857Y-64012000D01*
X318441714Y-63940571D01*
X318584571Y-63940571D01*
X319084571Y-64940571D02*
X319084571Y-63440571D01*
X319084571Y-64012000D02*
X319227428Y-63940571D01*
X319513142Y-63940571D01*
X319656000Y-64012000D01*
X319727428Y-64083428D01*
X319798857Y-64226285D01*
X319798857Y-64654857D01*
X319727428Y-64797714D01*
X319656000Y-64869142D01*
X319513142Y-64940571D01*
X319227428Y-64940571D01*
X319084571Y-64869142D01*
X321084571Y-64940571D02*
X321084571Y-64154857D01*
X321013142Y-64012000D01*
X320870285Y-63940571D01*
X320584571Y-63940571D01*
X320441714Y-64012000D01*
X321084571Y-64869142D02*
X320941714Y-64940571D01*
X320584571Y-64940571D01*
X320441714Y-64869142D01*
X320370285Y-64726285D01*
X320370285Y-64583428D01*
X320441714Y-64440571D01*
X320584571Y-64369142D01*
X320941714Y-64369142D01*
X321084571Y-64297714D01*
X322441714Y-64869142D02*
X322298857Y-64940571D01*
X322013142Y-64940571D01*
X321870285Y-64869142D01*
X321798857Y-64797714D01*
X321727428Y-64654857D01*
X321727428Y-64226285D01*
X321798857Y-64083428D01*
X321870285Y-64012000D01*
X322013142Y-63940571D01*
X322298857Y-63940571D01*
X322441714Y-64012000D01*
X323084571Y-64940571D02*
X323084571Y-63440571D01*
X323727428Y-64940571D02*
X323727428Y-64154857D01*
X323656000Y-64012000D01*
X323513142Y-63940571D01*
X323298857Y-63940571D01*
X323156000Y-64012000D01*
X323084571Y-64083428D01*
X325584571Y-64369142D02*
X326727428Y-64369142D01*
X329227428Y-63940571D02*
X329227428Y-65154857D01*
X329156000Y-65297714D01*
X329084571Y-65369142D01*
X328941714Y-65440571D01*
X328727428Y-65440571D01*
X328584571Y-65369142D01*
X329227428Y-64869142D02*
X329084571Y-64940571D01*
X328798857Y-64940571D01*
X328656000Y-64869142D01*
X328584571Y-64797714D01*
X328513142Y-64654857D01*
X328513142Y-64226285D01*
X328584571Y-64083428D01*
X328656000Y-64012000D01*
X328798857Y-63940571D01*
X329084571Y-63940571D01*
X329227428Y-64012000D01*
X329941714Y-64940571D02*
X329941714Y-63940571D01*
X329941714Y-64226285D02*
X330013142Y-64083428D01*
X330084571Y-64012000D01*
X330227428Y-63940571D01*
X330370285Y-63940571D01*
X331513142Y-64940571D02*
X331513142Y-64154857D01*
X331441714Y-64012000D01*
X331298857Y-63940571D01*
X331013142Y-63940571D01*
X330870285Y-64012000D01*
X331513142Y-64869142D02*
X331370285Y-64940571D01*
X331013142Y-64940571D01*
X330870285Y-64869142D01*
X330798857Y-64726285D01*
X330798857Y-64583428D01*
X330870285Y-64440571D01*
X331013142Y-64369142D01*
X331370285Y-64369142D01*
X331513142Y-64297714D01*
X332084571Y-63940571D02*
X332441714Y-64940571D01*
X332798857Y-63940571D02*
X332441714Y-64940571D01*
X332298857Y-65297714D01*
X332227428Y-65369142D01*
X332084571Y-65440571D01*
X334013142Y-63940571D02*
X334013142Y-64940571D01*
X333370285Y-63940571D02*
X333370285Y-64726285D01*
X333441714Y-64869142D01*
X333584571Y-64940571D01*
X333798857Y-64940571D01*
X333941714Y-64869142D01*
X334013142Y-64797714D01*
X334727428Y-63940571D02*
X334727428Y-64940571D01*
X334727428Y-64083428D02*
X334798857Y-64012000D01*
X334941714Y-63940571D01*
X335156000Y-63940571D01*
X335298857Y-64012000D01*
X335370285Y-64154857D01*
X335370285Y-64940571D01*
X336084571Y-64940571D02*
X336084571Y-63940571D01*
X336084571Y-63440571D02*
X336013142Y-63512000D01*
X336084571Y-63583428D01*
X336156000Y-63512000D01*
X336084571Y-63440571D01*
X336084571Y-63583428D01*
X337441714Y-64869142D02*
X337298857Y-64940571D01*
X337013142Y-64940571D01*
X336870285Y-64869142D01*
X336798857Y-64797714D01*
X336727428Y-64654857D01*
X336727428Y-64226285D01*
X336798857Y-64083428D01*
X336870285Y-64012000D01*
X337013142Y-63940571D01*
X337298857Y-63940571D01*
X337441714Y-64012000D01*
X338298857Y-64940571D02*
X338156000Y-64869142D01*
X338084571Y-64797714D01*
X338013142Y-64654857D01*
X338013142Y-64226285D01*
X338084571Y-64083428D01*
X338156000Y-64012000D01*
X338298857Y-63940571D01*
X338513142Y-63940571D01*
X338656000Y-64012000D01*
X338727428Y-64083428D01*
X338798857Y-64226285D01*
X338798857Y-64654857D01*
X338727428Y-64797714D01*
X338656000Y-64869142D01*
X338513142Y-64940571D01*
X338298857Y-64940571D01*
X339441714Y-64940571D02*
X339441714Y-63940571D01*
X339441714Y-64226285D02*
X339513142Y-64083428D01*
X339584571Y-64012000D01*
X339727428Y-63940571D01*
X339870285Y-63940571D01*
X340370285Y-63940571D02*
X340370285Y-64940571D01*
X340370285Y-64083428D02*
X340441714Y-64012000D01*
X340584571Y-63940571D01*
X340798857Y-63940571D01*
X340941714Y-64012000D01*
X341013142Y-64154857D01*
X341013142Y-64940571D01*
X341727428Y-64797714D02*
X341798857Y-64869142D01*
X341727428Y-64940571D01*
X341656000Y-64869142D01*
X341727428Y-64797714D01*
X341727428Y-64940571D01*
X343084571Y-64869142D02*
X342941714Y-64940571D01*
X342656000Y-64940571D01*
X342513142Y-64869142D01*
X342441714Y-64797714D01*
X342370285Y-64654857D01*
X342370285Y-64226285D01*
X342441714Y-64083428D01*
X342513142Y-64012000D01*
X342656000Y-63940571D01*
X342941714Y-63940571D01*
X343084571Y-64012000D01*
X343941714Y-64940571D02*
X343798857Y-64869142D01*
X343727428Y-64797714D01*
X343656000Y-64654857D01*
X343656000Y-64226285D01*
X343727428Y-64083428D01*
X343798857Y-64012000D01*
X343941714Y-63940571D01*
X344156000Y-63940571D01*
X344298857Y-64012000D01*
X344370285Y-64083428D01*
X344441714Y-64226285D01*
X344441714Y-64654857D01*
X344370285Y-64797714D01*
X344298857Y-64869142D01*
X344156000Y-64940571D01*
X343941714Y-64940571D01*
X345084571Y-64940571D02*
X345084571Y-63940571D01*
X345084571Y-64083428D02*
X345156000Y-64012000D01*
X345298857Y-63940571D01*
X345513142Y-63940571D01*
X345656000Y-64012000D01*
X345727428Y-64154857D01*
X345727428Y-64940571D01*
X345727428Y-64154857D02*
X345798857Y-64012000D01*
X345941714Y-63940571D01*
X346156000Y-63940571D01*
X346298857Y-64012000D01*
X346370285Y-64154857D01*
X346370285Y-64940571D01*
X348227428Y-64369142D02*
X349370285Y-64369142D01*
X351227428Y-64940571D02*
X351227428Y-63440571D01*
X352084571Y-64940571D01*
X352084571Y-63440571D01*
X353013142Y-64940571D02*
X352870285Y-64869142D01*
X352798857Y-64797714D01*
X352727428Y-64654857D01*
X352727428Y-64226285D01*
X352798857Y-64083428D01*
X352870285Y-64012000D01*
X353013142Y-63940571D01*
X353227428Y-63940571D01*
X353370285Y-64012000D01*
X353441714Y-64083428D01*
X353513142Y-64226285D01*
X353513142Y-64654857D01*
X353441714Y-64797714D01*
X353370285Y-64869142D01*
X353227428Y-64940571D01*
X353013142Y-64940571D01*
X354013142Y-63940571D02*
X354370285Y-64940571D01*
X354727428Y-63940571D01*
X356370285Y-63512000D02*
X356370285Y-63440571D01*
X356441714Y-63297714D01*
X356513142Y-63226285D01*
X357941714Y-64940571D02*
X357084571Y-64940571D01*
X357513142Y-64940571D02*
X357513142Y-63440571D01*
X357370285Y-63654857D01*
X357227428Y-63797714D01*
X357084571Y-63869142D01*
X358656000Y-64940571D02*
X358941714Y-64940571D01*
X359084571Y-64869142D01*
X359156000Y-64797714D01*
X359298857Y-64583428D01*
X359370285Y-64297714D01*
X359370285Y-63726285D01*
X359298857Y-63583428D01*
X359227428Y-63512000D01*
X359084571Y-63440571D01*
X358798857Y-63440571D01*
X358656000Y-63512000D01*
X358584571Y-63583428D01*
X358513142Y-63726285D01*
X358513142Y-64083428D01*
X358584571Y-64226285D01*
X358656000Y-64297714D01*
X358798857Y-64369142D01*
X359084571Y-64369142D01*
X359227428Y-64297714D01*
X359298857Y-64226285D01*
X359370285Y-64083428D01*
D11*
X364000000Y-140500000D02*
X364000000Y-164500000D01*
X364000000Y-40000000D02*
X364000000Y-92500000D01*
X344000000Y-92500000D02*
X364000000Y-92500000D01*
X344000000Y-140500000D02*
X344000000Y-92500000D01*
X364000000Y-140500000D02*
X344000000Y-140500000D01*
X40000000Y-164500000D02*
X364000000Y-164500000D01*
X40000000Y-40000000D02*
X40000000Y-164500000D01*
X40000000Y-40000000D02*
X364000000Y-40000000D01*
D12*
X256794000Y-148082000D03*
X249174000Y-148082000D03*
X252984000Y-162052000D03*
X112014000Y-148082000D03*
X104394000Y-148082000D03*
X108204000Y-162052000D03*
D13*
X183134000Y-149860000D03*
X176784000Y-152400000D03*
X66294000Y-92964000D03*
X59944000Y-95504000D03*
X63881000Y-131064000D03*
X57531000Y-133604000D03*
X306705000Y-131064000D03*
X300355000Y-133604000D03*
D14*
X162052000Y-63540000D03*
X163302000Y-66040000D03*
X164552000Y-63540000D03*
X165802000Y-66040000D03*
X167052000Y-63540000D03*
X168302000Y-66040000D03*
X169552000Y-63540000D03*
X170802000Y-66040000D03*
X172052000Y-63540000D03*
X173302000Y-66040000D03*
X174552000Y-63540000D03*
X175802000Y-66040000D03*
X177052000Y-63540000D03*
X178302000Y-66040000D03*
X179552000Y-63540000D03*
X180802000Y-66040000D03*
X182052000Y-63540000D03*
X183302000Y-66040000D03*
X184552000Y-63540000D03*
X185802000Y-66040000D03*
X187052000Y-63540000D03*
X188302000Y-66040000D03*
X189552000Y-63540000D03*
X190802000Y-66040000D03*
X192052000Y-63540000D03*
X193302000Y-66040000D03*
X194552000Y-63540000D03*
X195802000Y-66040000D03*
X197052000Y-63540000D03*
X198302000Y-66040000D03*
X199552000Y-63540000D03*
X200802000Y-66040000D03*
D13*
X59563000Y-44958000D03*
X53213000Y-47498000D03*
X86233000Y-47498000D03*
X92583000Y-44958000D03*
X116332000Y-44958000D03*
X109982000Y-47498000D03*
X133731000Y-47498000D03*
X140081000Y-44958000D03*
X163830000Y-44958000D03*
X157480000Y-47498000D03*
X181229000Y-47498000D03*
X187579000Y-44958000D03*
X221361000Y-44958000D03*
X215011000Y-47498000D03*
X238760000Y-47498000D03*
X245110000Y-44958000D03*
X268859000Y-44958000D03*
X262509000Y-47498000D03*
X286385000Y-47498000D03*
X292735000Y-44958000D03*
X316611000Y-44958000D03*
X310261000Y-47498000D03*
X55245000Y-76454000D03*
X61595000Y-73914000D03*
X79121000Y-76454000D03*
X85471000Y-73914000D03*
X104521000Y-73914000D03*
X98171000Y-76454000D03*
X117221000Y-76454000D03*
X123571000Y-73914000D03*
X142621000Y-73914000D03*
X136271000Y-76454000D03*
X161671000Y-73914000D03*
X155321000Y-76454000D03*
X174371000Y-76454000D03*
X180721000Y-73914000D03*
X199771000Y-73914000D03*
X193421000Y-76454000D03*
X212471000Y-76454000D03*
X218821000Y-73914000D03*
X237871000Y-73914000D03*
X231521000Y-76454000D03*
X256921000Y-73914000D03*
X250571000Y-76454000D03*
X269621000Y-76454000D03*
X275971000Y-73914000D03*
X295148000Y-73914000D03*
X288798000Y-76454000D03*
X307848000Y-76454000D03*
X314198000Y-73914000D03*
X327025000Y-76454000D03*
X333375000Y-73914000D03*
X352552000Y-73914000D03*
X346202000Y-76454000D03*
X343662000Y-47498000D03*
X350012000Y-44958000D03*
X88519000Y-95504000D03*
X94869000Y-92964000D03*
X113919000Y-92964000D03*
X107569000Y-95504000D03*
X126619000Y-95504000D03*
X132969000Y-92964000D03*
X152019000Y-92964000D03*
X145669000Y-95504000D03*
X164719000Y-95504000D03*
X171069000Y-92964000D03*
X190119000Y-92964000D03*
X183769000Y-95504000D03*
X202819000Y-95504000D03*
X209169000Y-92964000D03*
X228219000Y-92964000D03*
X221869000Y-95504000D03*
X240919000Y-95504000D03*
X247269000Y-92964000D03*
X266319000Y-92964000D03*
X259969000Y-95504000D03*
X279019000Y-95504000D03*
X285369000Y-92964000D03*
X304419000Y-92964000D03*
X298069000Y-95504000D03*
X330708000Y-102489000D03*
X324358000Y-105029000D03*
D15*
X326898000Y-112649000D03*
D16*
X329438000Y-112649000D03*
D13*
X59182000Y-112014000D03*
X52832000Y-114554000D03*
X80645000Y-112014000D03*
X74295000Y-114554000D03*
D15*
X76835000Y-122174000D03*
D16*
X79375000Y-122174000D03*
D13*
X99695000Y-112014000D03*
X93345000Y-114554000D03*
X112395000Y-114554000D03*
X118745000Y-112014000D03*
X137795000Y-112014000D03*
X131445000Y-114554000D03*
X150495000Y-114554000D03*
X156845000Y-112014000D03*
X175895000Y-112014000D03*
X169545000Y-114554000D03*
X188595000Y-114554000D03*
X194945000Y-112014000D03*
X213995000Y-112014000D03*
X207645000Y-114554000D03*
X226695000Y-114554000D03*
X233045000Y-112014000D03*
X252095000Y-112014000D03*
X245745000Y-114554000D03*
X264795000Y-114554000D03*
X271145000Y-112014000D03*
X242443000Y-131064000D03*
X236093000Y-133604000D03*
X302895000Y-114554000D03*
X309245000Y-112014000D03*
X326771000Y-133604000D03*
X333121000Y-131064000D03*
X90043000Y-131064000D03*
X83693000Y-133604000D03*
X102743000Y-133604000D03*
X109093000Y-131064000D03*
X121793000Y-133604000D03*
X128143000Y-131064000D03*
X147193000Y-131064000D03*
X140843000Y-133604000D03*
X159893000Y-133604000D03*
X166243000Y-131064000D03*
X185293000Y-131064000D03*
X178943000Y-133604000D03*
X197993000Y-133604000D03*
X204343000Y-131064000D03*
X223393000Y-131064000D03*
X217043000Y-133604000D03*
X283845000Y-114554000D03*
X290195000Y-112014000D03*
X261493000Y-131064000D03*
X255143000Y-133604000D03*
X274193000Y-133604000D03*
X280543000Y-131064000D03*
X314071000Y-149987000D03*
X307721000Y-152527000D03*
X333121000Y-149987000D03*
X326771000Y-152527000D03*
X345821000Y-152527000D03*
X352171000Y-149987000D03*
X62738000Y-152527000D03*
X69088000Y-149987000D03*
X92964000Y-149987000D03*
X86614000Y-152527000D03*
X266827000Y-152527000D03*
X273177000Y-149987000D03*
X288290000Y-152527000D03*
X294640000Y-149987000D03*
D17*
X163252990Y-71570010D03*
X165608000Y-122174000D03*
X328262099Y-122206901D03*
X332613000Y-152527000D03*
X308102000Y-52832000D03*
X326898000Y-121920000D03*
X323342000Y-121920000D03*
X180434099Y-147668099D03*
X181229000Y-123952000D03*
X183896000Y-132715000D03*
X174625000Y-53848000D03*
X67691000Y-53848000D03*
X68707000Y-67310000D03*
X177052000Y-60847000D03*
X70499000Y-60847000D03*
X83058000Y-68199000D03*
X59817000Y-114554000D03*
X62676999Y-132907999D03*
X179552000Y-60224000D03*
X59563000Y-60071000D03*
X85471000Y-68834000D03*
X182118000Y-59436000D03*
X104584500Y-58737500D03*
X118808500Y-69151500D03*
X184531000Y-58674000D03*
X140081000Y-58420000D03*
X161671000Y-92964000D03*
X181102000Y-92964000D03*
X185293000Y-112014000D03*
X204343000Y-112141000D03*
X188341000Y-72517000D03*
X189611000Y-82550000D03*
X237871000Y-68834000D03*
X245110000Y-57531000D03*
X268859000Y-64643000D03*
X194564000Y-44704000D03*
X195802000Y-69818000D03*
X281940000Y-54356000D03*
D18*
X55245000Y-72771000D02*
X55245000Y-76454000D01*
X307848000Y-72898000D02*
X306520010Y-71570010D01*
X56445990Y-71570010D02*
X55245000Y-72771000D01*
X307848000Y-76454000D02*
X307848000Y-72898000D01*
X79121000Y-76454000D02*
X79121000Y-71570010D01*
X98171000Y-76454000D02*
X98171000Y-71570010D01*
X117221000Y-76454000D02*
X117221000Y-71570010D01*
X136328990Y-74805020D02*
X136328990Y-71570010D01*
X136271000Y-74863010D02*
X136328990Y-74805020D01*
X136328990Y-71570010D02*
X56445990Y-71570010D01*
X136271000Y-76454000D02*
X136271000Y-74863010D01*
X155321000Y-76454000D02*
X155321000Y-71570010D01*
X163252990Y-71570010D02*
X136328990Y-71570010D01*
X174428990Y-74805020D02*
X174428990Y-71570010D01*
X174371000Y-74863010D02*
X174428990Y-74805020D01*
X174371000Y-76454000D02*
X174371000Y-74863010D01*
X174428990Y-71570010D02*
X163252990Y-71570010D01*
X193478990Y-74805020D02*
X193478990Y-71570010D01*
X193421000Y-74863010D02*
X193478990Y-74805020D01*
X193421000Y-76454000D02*
X193421000Y-74863010D01*
X193478990Y-71570010D02*
X174428990Y-71570010D01*
X212471000Y-76454000D02*
X212471000Y-71628000D01*
X212471000Y-71628000D02*
X212413010Y-71570010D01*
X212413010Y-71570010D02*
X193478990Y-71570010D01*
X231578990Y-74805020D02*
X231578990Y-71570010D01*
X231521000Y-74863010D02*
X231578990Y-74805020D01*
X231521000Y-76454000D02*
X231521000Y-74863010D01*
X231578990Y-71570010D02*
X212413010Y-71570010D01*
X250628990Y-74805020D02*
X250628990Y-71570010D01*
X250571000Y-74863010D02*
X250628990Y-74805020D01*
X250628990Y-71570010D02*
X231578990Y-71570010D01*
X250571000Y-76454000D02*
X250571000Y-74863010D01*
X269621000Y-71628000D02*
X269563010Y-71570010D01*
X269621000Y-76454000D02*
X269621000Y-71628000D01*
X269563010Y-71570010D02*
X250628990Y-71570010D01*
X288798000Y-76454000D02*
X288798000Y-74863010D01*
X288740010Y-74805020D02*
X288740010Y-71570010D01*
X288740010Y-71570010D02*
X269563010Y-71570010D01*
X288798000Y-74863010D02*
X288740010Y-74805020D01*
X306520010Y-71570010D02*
X288740010Y-71570010D01*
X163252990Y-71570010D02*
X163252990Y-71570010D01*
X314833000Y-95504000D02*
X324358000Y-105029000D01*
X298069000Y-95504000D02*
X314833000Y-95504000D01*
X61534990Y-95504000D02*
X59944000Y-95504000D01*
X73951772Y-95504000D02*
X61534990Y-95504000D01*
X77941773Y-91513999D02*
X73951772Y-95504000D01*
X298069000Y-92583000D02*
X296999999Y-91513999D01*
X298069000Y-95504000D02*
X298069000Y-92583000D01*
X88572001Y-93860009D02*
X88572001Y-91513999D01*
X88519000Y-93913010D02*
X88572001Y-93860009D01*
X88572001Y-91513999D02*
X77941773Y-91513999D01*
X88519000Y-95504000D02*
X88519000Y-93913010D01*
X107569000Y-91587998D02*
X107642999Y-91513999D01*
X107569000Y-95504000D02*
X107569000Y-91587998D01*
X107642999Y-91513999D02*
X88572001Y-91513999D01*
X126619000Y-95504000D02*
X126619000Y-91587998D01*
X126619000Y-91587998D02*
X126692999Y-91513999D01*
X126692999Y-91513999D02*
X107642999Y-91513999D01*
X145669000Y-91567000D02*
X145722001Y-91513999D01*
X145669000Y-95504000D02*
X145669000Y-91567000D01*
X145722001Y-91513999D02*
X126692999Y-91513999D01*
X164719000Y-95504000D02*
X164719000Y-91567000D01*
X164665999Y-91513999D02*
X145722001Y-91513999D01*
X164719000Y-91567000D02*
X164665999Y-91513999D01*
X183769000Y-91567000D02*
X183715999Y-91513999D01*
X183715999Y-91513999D02*
X164665999Y-91513999D01*
X183769000Y-95504000D02*
X183769000Y-91567000D01*
X202872001Y-93860009D02*
X202872001Y-91513999D01*
X202819000Y-93913010D02*
X202872001Y-93860009D01*
X202819000Y-95504000D02*
X202819000Y-93913010D01*
X202872001Y-91513999D02*
X183715999Y-91513999D01*
X221815999Y-93860009D02*
X221815999Y-91513999D01*
X221869000Y-93913010D02*
X221815999Y-93860009D01*
X221869000Y-95504000D02*
X221869000Y-93913010D01*
X221815999Y-91513999D02*
X202872001Y-91513999D01*
X240919000Y-95504000D02*
X240919000Y-93913010D01*
X240919000Y-93913010D02*
X240972001Y-93860009D01*
X240972001Y-91513999D02*
X221815999Y-91513999D01*
X240972001Y-93860009D02*
X240972001Y-91513999D01*
X259969000Y-91567000D02*
X259915999Y-91513999D01*
X259969000Y-95504000D02*
X259969000Y-91567000D01*
X259915999Y-91513999D02*
X240972001Y-91513999D01*
X279019000Y-93913010D02*
X278965999Y-93860009D01*
X278965999Y-93860009D02*
X278965999Y-91513999D01*
X279019000Y-95504000D02*
X279019000Y-93913010D01*
X278965999Y-91513999D02*
X259915999Y-91513999D01*
X296999999Y-91513999D02*
X278965999Y-91513999D01*
X165608000Y-122174000D02*
X79375000Y-122174000D01*
X74295000Y-111760000D02*
X74295000Y-114554000D01*
X75438000Y-110617000D02*
X74295000Y-111760000D01*
X79948999Y-110563999D02*
X79895998Y-110617000D01*
X79895998Y-110617000D02*
X75438000Y-110617000D01*
X302895000Y-112141000D02*
X301317999Y-110563999D01*
X302895000Y-114554000D02*
X302895000Y-112141000D01*
X93345000Y-110617000D02*
X93291999Y-110563999D01*
X93291999Y-110563999D02*
X79948999Y-110563999D01*
X93345000Y-114554000D02*
X93345000Y-110617000D01*
X112395000Y-110637998D02*
X112321001Y-110563999D01*
X112395000Y-114554000D02*
X112395000Y-110637998D01*
X112321001Y-110563999D02*
X93291999Y-110563999D01*
X131445000Y-114554000D02*
X131445000Y-110617000D01*
X131391999Y-110563999D02*
X112321001Y-110563999D01*
X131445000Y-110617000D02*
X131391999Y-110563999D01*
X150441999Y-112910009D02*
X150441999Y-110563999D01*
X150495000Y-114554000D02*
X150495000Y-112963010D01*
X150441999Y-110563999D02*
X131391999Y-110563999D01*
X150495000Y-112963010D02*
X150441999Y-112910009D01*
X169598001Y-112910009D02*
X169598001Y-110563999D01*
X169545000Y-112963010D02*
X169598001Y-112910009D01*
X169545000Y-114554000D02*
X169545000Y-112963010D01*
X169598001Y-110563999D02*
X150441999Y-110563999D01*
X188648001Y-112910009D02*
X188648001Y-110563999D01*
X188595000Y-112963010D02*
X188648001Y-112910009D01*
X188595000Y-114554000D02*
X188595000Y-112963010D01*
X188648001Y-110563999D02*
X169598001Y-110563999D01*
X207645000Y-114554000D02*
X207645000Y-110617000D01*
X207698001Y-110563999D02*
X188648001Y-110563999D01*
X207645000Y-110617000D02*
X207698001Y-110563999D01*
X226695000Y-110617000D02*
X226748001Y-110563999D01*
X226695000Y-114554000D02*
X226695000Y-110617000D01*
X226748001Y-110563999D02*
X207698001Y-110563999D01*
X245745000Y-110617000D02*
X245798001Y-110563999D01*
X245745000Y-114554000D02*
X245745000Y-110617000D01*
X245798001Y-110563999D02*
X226748001Y-110563999D01*
X264848001Y-112910009D02*
X264848001Y-110563999D01*
X264795000Y-112963010D02*
X264848001Y-112910009D01*
X264795000Y-114554000D02*
X264795000Y-112963010D01*
X264848001Y-110563999D02*
X245798001Y-110563999D01*
X301317999Y-110563999D02*
X264848001Y-110563999D01*
X332613000Y-152527000D02*
X345821000Y-152527000D01*
X320609198Y-114554000D02*
X328262099Y-122206901D01*
X302895000Y-114554000D02*
X320609198Y-114554000D01*
X308102000Y-52832000D02*
X308102000Y-52832000D01*
X202123590Y-52832000D02*
X308102000Y-52832000D01*
X193360590Y-61595000D02*
X202123590Y-52832000D01*
X168302000Y-63124998D02*
X169831998Y-61595000D01*
X169831998Y-61595000D02*
X193360590Y-61595000D01*
X168302000Y-66040000D02*
X168302000Y-63124998D01*
X284480000Y-115189000D02*
X283845000Y-114554000D01*
X274193000Y-133604000D02*
X284480000Y-123317000D01*
X274193000Y-133604000D02*
X274193000Y-131445000D01*
X274193000Y-131445000D02*
X272361999Y-129613999D01*
X83693000Y-130683000D02*
X83693000Y-133604000D01*
X84762001Y-129613999D02*
X83693000Y-130683000D01*
X102816999Y-131939011D02*
X102816999Y-129613999D01*
X102816999Y-129613999D02*
X84762001Y-129613999D01*
X102743000Y-132013010D02*
X102816999Y-131939011D01*
X102743000Y-133604000D02*
X102743000Y-132013010D01*
X121793000Y-129667000D02*
X121846001Y-129613999D01*
X121793000Y-133604000D02*
X121793000Y-129667000D01*
X121846001Y-129613999D02*
X102816999Y-129613999D01*
X140896001Y-129613999D02*
X121846001Y-129613999D01*
X140843000Y-129667000D02*
X140896001Y-129613999D01*
X140843000Y-133604000D02*
X140843000Y-129667000D01*
X159946001Y-131960009D02*
X159946001Y-129613999D01*
X159893000Y-132013010D02*
X159946001Y-131960009D01*
X159946001Y-129613999D02*
X140896001Y-129613999D01*
X159893000Y-133604000D02*
X159893000Y-132013010D01*
X178943000Y-129667000D02*
X178889999Y-129613999D01*
X178943000Y-133604000D02*
X178943000Y-129667000D01*
X178889999Y-129613999D02*
X159946001Y-129613999D01*
X198046001Y-131960009D02*
X198046001Y-129613999D01*
X197993000Y-133604000D02*
X197993000Y-132013010D01*
X198046001Y-129613999D02*
X178889999Y-129613999D01*
X197993000Y-132013010D02*
X198046001Y-131960009D01*
X217096001Y-131960009D02*
X217096001Y-129613999D01*
X217043000Y-133604000D02*
X217043000Y-132013010D01*
X217043000Y-132013010D02*
X217096001Y-131960009D01*
X217096001Y-129613999D02*
X198046001Y-129613999D01*
X255143000Y-129667000D02*
X255196001Y-129613999D01*
X255143000Y-133604000D02*
X255143000Y-129667000D01*
X255196001Y-129613999D02*
X217096001Y-129613999D01*
X272361999Y-129613999D02*
X255196001Y-129613999D01*
X326332315Y-121920000D02*
X323342000Y-121920000D01*
X284480000Y-121920000D02*
X284480000Y-115189000D01*
X326898000Y-121920000D02*
X326332315Y-121920000D01*
X284480000Y-123317000D02*
X284480000Y-121920000D01*
X323342000Y-121920000D02*
X284480000Y-121920000D01*
X293049010Y-149987000D02*
X294640000Y-149987000D01*
X288683998Y-149987000D02*
X293049010Y-149987000D01*
X287233997Y-151437001D02*
X288683998Y-149987000D01*
X272120997Y-151076999D02*
X272480999Y-151437001D01*
X272480999Y-151437001D02*
X287233997Y-151437001D01*
X239907477Y-151076999D02*
X272120997Y-151076999D01*
X236498577Y-147668099D02*
X239907477Y-151076999D01*
X180434099Y-147668099D02*
X236498577Y-147668099D01*
X76835000Y-123521038D02*
X77265962Y-123952000D01*
X76835000Y-122174000D02*
X76835000Y-123521038D01*
X77265962Y-123952000D02*
X168529000Y-123952000D01*
X168529000Y-123952000D02*
X168529000Y-123952000D01*
X168529000Y-123952000D02*
X181229000Y-123952000D01*
X273177000Y-149987000D02*
X267843000Y-144653000D01*
X267843000Y-144653000D02*
X201041000Y-144653000D01*
X201041000Y-144653000D02*
X190500000Y-134112000D01*
X190500000Y-134112000D02*
X190500000Y-134112000D01*
X190500000Y-134112000D02*
X185293000Y-134112000D01*
X185293000Y-134112000D02*
X183896000Y-132715000D01*
X183896000Y-132715000D02*
X183896000Y-132715000D01*
X174625000Y-53848000D02*
X174059315Y-53848000D01*
X174059315Y-53848000D02*
X67691000Y-53848000D01*
X67691000Y-53848000D02*
X67691000Y-53848000D01*
X175802000Y-66040000D02*
X174532000Y-67310000D01*
X174532000Y-67310000D02*
X68707000Y-67310000D01*
X68707000Y-67310000D02*
X68707000Y-67310000D01*
X177052000Y-60847000D02*
X70499000Y-60847000D01*
X70499000Y-60847000D02*
X70499000Y-60847000D01*
X178302000Y-66040000D02*
X176524000Y-67818000D01*
X176524000Y-67818000D02*
X83439000Y-67818000D01*
X83439000Y-67818000D02*
X83058000Y-68199000D01*
X83058000Y-68199000D02*
X83058000Y-68199000D01*
X79520001Y-113138999D02*
X80645000Y-112014000D01*
X78758001Y-113138999D02*
X79520001Y-113138999D01*
X72448999Y-118294001D02*
X73602999Y-118294001D01*
X73602999Y-118294001D02*
X78758001Y-113138999D01*
X68708998Y-114554000D02*
X72448999Y-118294001D01*
X59817000Y-114554000D02*
X68708998Y-114554000D01*
X88154003Y-132188999D02*
X88918001Y-132188999D01*
X88918001Y-132188999D02*
X90043000Y-131064000D01*
X82999001Y-137344001D02*
X88154003Y-132188999D01*
X65844999Y-137344001D02*
X82999001Y-137344001D01*
X63659901Y-135158903D02*
X65844999Y-137344001D01*
X63659901Y-133890901D02*
X63659901Y-135158903D01*
X62676999Y-132907999D02*
X63659901Y-133890901D01*
X177502002Y-60224000D02*
X177349002Y-60071000D01*
X179552000Y-60224000D02*
X177502002Y-60224000D01*
X177349002Y-60071000D02*
X59563000Y-60071000D01*
X59563000Y-60071000D02*
X59563000Y-60071000D01*
X178573991Y-68268009D02*
X176710400Y-68268010D01*
X180802000Y-66040000D02*
X178573991Y-68268009D01*
X176710400Y-68268010D02*
X86036990Y-68268010D01*
X86036990Y-68268010D02*
X85471000Y-68834000D01*
X85471000Y-68834000D02*
X85471000Y-68834000D01*
X182118000Y-59436000D02*
X105283000Y-59436000D01*
X105283000Y-59436000D02*
X104584500Y-58737500D01*
X104584500Y-58737500D02*
X104521000Y-58674000D01*
X183302000Y-66040000D02*
X180508000Y-68834000D01*
X119241980Y-68718020D02*
X180623980Y-68718020D01*
X182502001Y-66839999D02*
X183302000Y-66040000D01*
X180623980Y-68718020D02*
X182502001Y-66839999D01*
X118808500Y-69151500D02*
X119241980Y-68718020D01*
X184531000Y-58674000D02*
X140335000Y-58674000D01*
X140335000Y-58674000D02*
X140081000Y-58420000D01*
X140081000Y-58420000D02*
X140081000Y-58420000D01*
X169478010Y-92964000D02*
X171069000Y-92964000D01*
X165488009Y-96954001D02*
X169478010Y-92964000D01*
X164022999Y-96954001D02*
X165488009Y-96954001D01*
X161271001Y-94202003D02*
X164022999Y-96954001D01*
X161271001Y-93363999D02*
X161271001Y-94202003D01*
X161671000Y-92964000D02*
X161271001Y-93363999D01*
X171069000Y-92964000D02*
X181102000Y-92964000D01*
X175895000Y-112014000D02*
X185293000Y-112014000D01*
X195072000Y-112141000D02*
X194945000Y-112014000D01*
X204343000Y-112141000D02*
X195072000Y-112141000D01*
X192798998Y-77978000D02*
X188341000Y-73520002D01*
X194043002Y-77978000D02*
X192798998Y-77978000D01*
X198107002Y-73914000D02*
X194043002Y-77978000D01*
X199771000Y-73914000D02*
X198107002Y-73914000D01*
X188341000Y-73520002D02*
X188341000Y-72517000D01*
X188341000Y-72517000D02*
X188341000Y-72517000D01*
X234635990Y-112014000D02*
X233045000Y-112014000D01*
X245048999Y-116004001D02*
X241058998Y-112014000D01*
X246441001Y-116004001D02*
X245048999Y-116004001D01*
X248981001Y-113464001D02*
X246441001Y-116004001D01*
X241058998Y-112014000D02*
X234635990Y-112014000D01*
X261558999Y-113464001D02*
X248981001Y-113464001D01*
X264098999Y-116004001D02*
X261558999Y-113464001D01*
X265491001Y-116004001D02*
X264098999Y-116004001D01*
X268031001Y-113464001D02*
X265491001Y-116004001D01*
X271841001Y-113464001D02*
X268031001Y-113464001D01*
X273291002Y-112014000D02*
X271841001Y-113464001D01*
X290195000Y-112014000D02*
X273291002Y-112014000D01*
X216932003Y-75038999D02*
X209421002Y-82550000D01*
X217696001Y-75038999D02*
X216932003Y-75038999D01*
X218821000Y-73914000D02*
X217696001Y-75038999D01*
X209421002Y-82550000D02*
X189611000Y-82550000D01*
X189611000Y-82550000D02*
X189611000Y-82550000D01*
X190802000Y-66040000D02*
X193596000Y-68834000D01*
X193596000Y-68834000D02*
X237871000Y-68834000D01*
X237871000Y-68834000D02*
X237871000Y-68834000D01*
X192052000Y-63540000D02*
X198061000Y-57531000D01*
X198061000Y-57531000D02*
X245110000Y-57531000D01*
X245110000Y-57531000D02*
X245110000Y-57531000D01*
X195511997Y-64665001D02*
X268836999Y-64665001D01*
X194136998Y-66040000D02*
X195511997Y-64665001D01*
X193302000Y-66040000D02*
X194136998Y-66040000D01*
X292735000Y-44958000D02*
X290830000Y-43053000D01*
X290830000Y-43053000D02*
X196215000Y-43053000D01*
X196215000Y-43053000D02*
X194564000Y-44704000D01*
X194564000Y-44704000D02*
X194564000Y-44704000D01*
X352552000Y-72323010D02*
X351348990Y-71120000D01*
X352552000Y-73914000D02*
X352552000Y-72323010D01*
X333375000Y-72323010D02*
X333375000Y-71120000D01*
X333375000Y-73914000D02*
X333375000Y-72323010D01*
X351348990Y-71120000D02*
X333375000Y-71120000D01*
X333375000Y-71120000D02*
X314325000Y-71120000D01*
X314325000Y-72196010D02*
X314325000Y-71120000D01*
X314198000Y-72323010D02*
X314325000Y-72196010D01*
X314198000Y-73914000D02*
X314198000Y-72323010D01*
X197104000Y-71120000D02*
X195802000Y-69818000D01*
X314325000Y-71120000D02*
X197104000Y-71120000D01*
X195802000Y-69818000D02*
X195802000Y-69818000D01*
X352171000Y-149987000D02*
X333121000Y-149987000D01*
X314071000Y-149987000D02*
X333121000Y-149987000D01*
X333121000Y-148396010D02*
X333756000Y-147761010D01*
X333121000Y-149987000D02*
X333121000Y-148396010D01*
X333756000Y-147761010D02*
X333756000Y-133477000D01*
X333121000Y-132842000D02*
X333121000Y-131064000D01*
X333756000Y-133477000D02*
X333121000Y-132842000D01*
X281940000Y-54356000D02*
X273431000Y-54356000D01*
X269530999Y-58256001D02*
X213831001Y-58256001D01*
X273431000Y-54356000D02*
X269530999Y-58256001D01*
X213831001Y-58256001D02*
X213741000Y-58166000D01*
X202426000Y-58166000D02*
X197052000Y-63540000D01*
X213741000Y-58166000D02*
X202426000Y-58166000D01*
X52832000Y-114554000D02*
X52832000Y-115316000D01*
X52832000Y-115316000D02*
X53467000Y-115951000D01*
X53467000Y-129540000D02*
X57531000Y-133604000D01*
X53467000Y-115951000D02*
X53467000Y-129540000D01*
X295529000Y-152527000D02*
X288290000Y-152527000D01*
X300355000Y-147701000D02*
X295529000Y-152527000D01*
X300355000Y-133604000D02*
X300355000Y-147701000D01*
X288290000Y-152527000D02*
X266827000Y-152527000D01*
X266827000Y-152527000D02*
X265236010Y-152527000D01*
X58293000Y-148082000D02*
X62738000Y-152527000D01*
X58293000Y-135128000D02*
X58293000Y-148082000D01*
X57531000Y-134366000D02*
X58293000Y-135128000D01*
X57531000Y-133604000D02*
X57531000Y-134366000D01*
M02*
