M48
; DRILL file {KiCad (6.0.4)} date Mon May 16 18:12:22 2022
; FORMAT={-:-/ absolute / inch / decimal}
; #@! TF.CreationDate,2022-05-16T18:12:22+10:00
; #@! TF.GenerationSoftware,Kicad,Pcbnew,(6.0.4)
; #@! TF.FileFunction,NonPlated,1,2,NPTH
FMAT,2
INCH
; #@! TA.AperFunction,NonPlated,NPTH,ComponentDrill
T1C0.0689
; #@! TA.AperFunction,NonPlated,NPTH,ComponentDrill
T2C0.1200
; #@! TA.AperFunction,NonPlated,NPTH,ComponentDrill
T3C0.1570
%
G90
G05
T1
X2.03Y-4.61
X2.045Y-1.97
X2.125Y-3.11
X2.215Y-5.36
X2.31Y-3.86
X2.42Y-6.105
X2.43Y-4.61
X2.445Y-1.97
X2.525Y-3.11
X2.615Y-5.36
X2.71Y-3.86
X2.82Y-6.105
X2.875Y-4.61
X3.065Y-3.11
X3.245Y-5.36
X3.275Y-4.61
X3.345Y-1.97
X3.36Y-6.105
X3.435Y-3.86
X3.465Y-3.11
X3.625Y-4.61
X3.645Y-5.36
X3.745Y-1.97
X3.76Y-6.105
X3.815Y-3.11
X3.835Y-3.86
X3.995Y-5.36
X4.025Y-4.61
X4.185Y-3.86
X4.215Y-3.11
X4.28Y-1.97
X4.375Y-4.61
X4.395Y-5.36
X4.565Y-3.11
X4.585Y-3.86
X4.68Y-1.97
X4.745Y-5.36
X4.775Y-4.61
X4.935Y-3.86
X4.965Y-3.11
X5.125Y-4.61
X5.145Y-5.36
X5.215Y-1.97
X5.315Y-3.11
X5.335Y-3.86
X5.495Y-5.36
X5.525Y-4.61
X5.615Y-1.97
X5.685Y-3.86
X5.715Y-3.11
X5.875Y-4.61
X5.895Y-5.36
X6.065Y-3.11
X6.085Y-3.86
X6.15Y-1.97
X6.245Y-5.36
X6.275Y-4.61
X6.435Y-3.86
X6.465Y-3.11
X6.55Y-1.97
X6.625Y-4.61
X6.645Y-5.36
X6.815Y-3.11
X6.835Y-3.86
X6.91Y-6.1
X6.995Y-5.36
X7.025Y-4.61
X7.085Y-1.97
X7.185Y-3.86
X7.215Y-3.11
X7.31Y-6.1
X7.375Y-4.61
X7.395Y-5.36
X7.485Y-1.97
X7.565Y-3.11
X7.585Y-3.86
X7.745Y-5.36
X7.775Y-4.61
X7.935Y-3.86
X7.965Y-3.11
X8.125Y-4.61
X8.145Y-5.36
X8.315Y-3.11
X8.335Y-3.86
X8.415Y-1.97
X8.495Y-5.36
X8.525Y-4.61
X8.685Y-3.86
X8.715Y-3.11
X8.815Y-1.97
X8.875Y-4.61
X8.895Y-5.36
X9.065Y-3.11
X9.085Y-3.86
X9.2437Y-5.3604
X9.275Y-4.61
X9.35Y-1.97
X9.435Y-3.86
X9.465Y-3.11
X9.625Y-4.61
X9.6437Y-5.3604
X9.75Y-1.97
X9.815Y-3.11
X9.835Y-3.86
X9.995Y-5.36
X10.025Y-4.61
X10.185Y-3.86
X10.215Y-3.11
X10.285Y-1.97
X10.375Y-4.61
X10.395Y-5.36
X10.455Y-6.105
X10.565Y-3.11
X10.585Y-3.86
X10.685Y-1.97
X10.745Y-5.36
X10.775Y-4.61
X10.855Y-6.105
X10.935Y-3.86
X10.965Y-3.11
X11.1257Y-4.6099
X11.145Y-5.36
X11.225Y-1.97
X11.3Y-6.105
X11.32Y-3.11
X11.335Y-3.86
X11.5257Y-4.6099
X11.625Y-1.97
X11.685Y-3.86
X11.7Y-6.105
X11.72Y-3.11
X11.775Y-5.36
X11.875Y-4.61
X12.065Y-6.105
X12.07Y-3.11
X12.085Y-3.86
X12.165Y-1.97
X12.175Y-5.36
X12.275Y-4.61
X12.465Y-6.105
X12.47Y-3.11
X12.565Y-1.97
X12.72Y-4.235
X12.815Y-5.36
X12.815Y-6.105
X12.825Y-3.11
X13.12Y-4.235
X13.215Y-5.36
X13.215Y-6.105
X13.225Y-3.11
X13.48Y-1.97
X13.565Y-6.105
X13.58Y-3.11
X13.88Y-1.97
X13.965Y-6.105
X13.98Y-3.11
T2
X2.0412Y-3.585
X2.9787Y-3.585
X4.86Y-5.825
X9.36Y-5.825
X12.645Y-3.765
X12.645Y-4.705
T3
X2.0412Y-4.185
X2.23Y-4.61
X2.245Y-1.97
X2.325Y-3.11
X2.415Y-5.36
X2.51Y-3.86
X2.62Y-6.105
X2.9787Y-4.185
X3.075Y-4.61
X3.265Y-3.11
X3.445Y-5.36
X3.545Y-1.97
X3.56Y-6.105
X3.635Y-3.86
X3.825Y-4.61
X4.015Y-3.11
X4.195Y-5.36
X4.385Y-3.86
X4.48Y-1.97
X4.575Y-4.61
X4.765Y-3.11
X4.86Y-6.425
X4.945Y-5.36
X5.135Y-3.86
X5.325Y-4.61
X5.415Y-1.97
X5.515Y-3.11
X5.695Y-5.36
X5.885Y-3.86
X6.075Y-4.61
X6.265Y-3.11
X6.35Y-1.97
X6.445Y-5.36
X6.635Y-3.86
X6.825Y-4.61
X7.015Y-3.11
X7.11Y-6.1
X7.195Y-5.36
X7.285Y-1.97
X7.385Y-3.86
X7.575Y-4.61
X7.765Y-3.11
X7.945Y-5.36
X8.135Y-3.86
X8.325Y-4.61
X8.515Y-3.11
X8.615Y-1.97
X8.695Y-5.36
X8.885Y-3.86
X9.075Y-4.61
X9.265Y-3.11
X9.36Y-6.425
X9.4437Y-5.3604
X9.55Y-1.97
X9.635Y-3.86
X9.825Y-4.61
X10.015Y-3.11
X10.195Y-5.36
X10.385Y-3.86
X10.485Y-1.97
X10.575Y-4.61
X10.655Y-6.105
X10.765Y-3.11
X10.945Y-5.36
X11.135Y-3.86
X11.3257Y-4.6099
X11.425Y-1.97
X11.5Y-6.105
X11.52Y-3.11
X11.885Y-3.86
X11.975Y-5.36
X12.075Y-4.61
X12.265Y-6.105
X12.27Y-3.11
X12.365Y-1.97
X12.92Y-4.235
X13.015Y-5.36
X13.015Y-6.105
X13.025Y-3.11
X13.245Y-3.765
X13.245Y-4.705
X13.68Y-1.97
X13.765Y-6.105
X13.78Y-3.11
T0
M30
